# xmcd CD database file
#
# Track frame offsets:
#	182
#	10562
#	22982
#	33787
#	43307
#	60147
#	71075
#	81795
#	93417
#	109907
#	122365
#	133195
#	147712
#	158977
#	170280
#	184087
#	194707
#
# Disc length: 2766 seconds
#
# Revision: 2
# Processed by: cddbd v1.5.2PL0 Copyright (c) Steve Scherf et al.
# Submitted via: CDex 1.50beta10
#
DISCID=e40acc11
DTITLE=Various Artist - Classic Country Collection  Disc 1
DYEAR=1900
DGENRE=Country
TTITLE0=Jimmie Rodgers - Kisses Sweeter Than Wine
TTITLE1=Faron Young - Country Girl
TTITLE2=Judy Stone - Would You Lay With Me In A Field Of Stone
TTITLE3=Duane Eddy - 40 Miles Of Bad Road
TTITLE4=Lynn Anderson - Blue Bayou
TTITLE5=Johnny Paycheck - Heartbreak Tennessee
TTITLE6=Reg Lindsay - On The Road Again
TTITLE7=Lee Conway - The Stories We Can tell
TTITLE8=Charlie McCoy - Orange Blosso\m Special
TTITLE9=Roy Orbison - Crying
TTITLE10=Mickey Gilley - World Of My Own
TTITLE11=Dolly Parton/Willie Nelson - Everything Is Beautiful
TTITLE12=Marty Robbins - Restless Cattle
TTITLE13=Patsy Cline - I've Loved and Lost Again
TTITLE14=Dave Dudley - Phantom 309
TTITLE15=Don Williams - Always Something There To Remind Me
TTITLE16=George Jones - I Love You Because
EXTD=
EXTT0=
EXTT1=
EXTT2=
EXTT3=
EXTT4=
EXTT5=
EXTT6=
EXTT7=
EXTT8=
EXTT9=
EXTT10=
EXTT11=
EXTT12=
EXTT13=
EXTT14=
EXTT15=
EXTT16=
PLAYORDER=
